<svg xmlns="http://www.w3.org/2000/svg" xmlns:xlink="http://www.w3.org/1999/xlink" width="500" zoomAndPan="magnify" viewBox="0 0 375 374.999991" height="500" preserveAspectRatio="xMidYMid meet" version="1.0"><defs><clipPath id="15ba8e5d96"><path d="M 94 52 L 292.570312 52 L 292.570312 333.257812 L 94 333.257812 Z M 94 52 " clip-rule="nonzero"/></clipPath></defs><g clip-path="url(#15ba8e5d96)"><path fill="#554ecd" d="M 272.925781 172.871094 C 271.570312 172.84375 270.234375 172.992188 268.917969 173.3125 C 267.601562 173.632812 266.347656 174.113281 265.15625 174.757812 C 263.964844 175.402344 262.871094 176.1875 261.882812 177.113281 C 260.894531 178.039062 260.039062 179.078125 259.320312 180.222656 L 259.320312 178.800781 C 259.320312 167.226562 250.28125 157.808594 239.167969 157.808594 C 232.320312 157.808594 226.257812 161.386719 222.613281 166.84375 L 222.613281 163.742188 C 222.613281 152.164062 213.570312 142.75 202.460938 142.75 C 195.621094 142.75 189.554688 146.332031 185.910156 151.792969 L 185.910156 72.71875 C 185.910156 72.058594 185.878906 71.398438 185.8125 70.742188 C 185.746094 70.085938 185.652344 69.433594 185.523438 68.789062 C 185.394531 68.140625 185.230469 67.5 185.039062 66.871094 C 184.847656 66.238281 184.625 65.617188 184.375 65.007812 C 184.121094 64.398438 183.839844 63.804688 183.527344 63.222656 C 183.214844 62.640625 182.878906 62.074219 182.511719 61.527344 C 182.144531 60.976562 181.75 60.449219 181.332031 59.9375 C 180.914062 59.429688 180.472656 58.941406 180.003906 58.472656 C 179.539062 58.007812 179.050781 57.566406 178.539062 57.148438 C 178.027344 56.730469 177.5 56.335938 176.949219 55.96875 C 176.402344 55.601562 175.835938 55.265625 175.253906 54.953125 C 174.671875 54.644531 174.078125 54.359375 173.46875 54.109375 C 172.859375 53.855469 172.238281 53.632812 171.605469 53.441406 C 170.976562 53.25 170.335938 53.089844 169.6875 52.960938 C 169.042969 52.832031 168.390625 52.738281 167.734375 52.671875 C 167.074219 52.609375 166.417969 52.574219 165.757812 52.574219 C 165.097656 52.574219 164.441406 52.609375 163.78125 52.671875 C 163.125 52.738281 162.472656 52.832031 161.828125 52.960938 C 161.179688 53.089844 160.539062 53.25 159.910156 53.441406 C 159.277344 53.632812 158.65625 53.855469 158.046875 54.109375 C 157.4375 54.359375 156.84375 54.644531 156.261719 54.953125 C 155.679688 55.265625 155.113281 55.601562 154.566406 55.96875 C 154.015625 56.335938 153.488281 56.730469 152.976562 57.148438 C 152.464844 57.566406 151.976562 58.007812 151.511719 58.472656 C 151.042969 58.941406 150.601562 59.429688 150.183594 59.9375 C 149.765625 60.449219 149.371094 60.976562 149.003906 61.527344 C 148.636719 62.074219 148.300781 62.640625 147.988281 63.222656 C 147.675781 63.804688 147.394531 64.398438 147.140625 65.007812 C 146.890625 65.617188 146.667969 66.238281 146.476562 66.871094 C 146.285156 67.5 146.121094 68.140625 145.992188 68.789062 C 145.863281 69.433594 145.769531 70.085938 145.703125 70.742188 C 145.636719 71.398438 145.605469 72.058594 145.605469 72.71875 L 145.605469 214.609375 C 139.859375 206.171875 128.058594 189.21875 121.582031 182.539062 C 117.023438 177.84375 109.019531 177.492188 102.539062 181.695312 C 97.207031 185.160156 92.359375 192.632812 96.238281 202.292969 C 101.171875 214.5625 151.121094 331.097656 151.625 332.273438 L 152.09375 333.363281 L 288.777344 333.363281 L 292.425781 206.09375 L 292.425781 193.859375 C 292.425781 182.089844 283.859375 172.871094 272.925781 172.871094 Z M 272.925781 172.871094 " fill-opacity="1" fill-rule="nonzero"/></g><path fill="#ffffff" d="M 265.34375 167.457031 C 255.246094 167.457031 249.941406 176.09375 249.941406 186.648438 L 249.941406 171.589844 C 249.941406 161.035156 241.679688 152.398438 231.585938 152.398438 C 221.492188 152.398438 213.230469 161.035156 213.230469 171.589844 L 213.230469 156.53125 C 213.230469 145.976562 204.972656 137.339844 194.878906 137.339844 C 184.800781 137.339844 176.558594 145.945312 176.53125 156.472656 L 176.53125 65.507812 C 176.53125 64.90625 176.5 64.308594 176.441406 63.707031 C 176.382812 63.109375 176.296875 62.515625 176.179688 61.925781 C 176.0625 61.335938 175.917969 60.753906 175.742188 60.179688 C 175.566406 59.601562 175.367188 59.039062 175.136719 58.480469 C 174.90625 57.925781 174.648438 57.382812 174.367188 56.851562 C 174.082031 56.324219 173.773438 55.808594 173.441406 55.308594 C 173.105469 54.808594 172.75 54.324219 172.367188 53.859375 C 171.984375 53.394531 171.582031 52.949219 171.15625 52.523438 C 170.734375 52.097656 170.289062 51.695312 169.824219 51.3125 C 169.359375 50.933594 168.875 50.574219 168.375 50.242188 C 167.875 49.90625 167.359375 49.597656 166.832031 49.3125 C 166.300781 49.03125 165.757812 48.773438 165.203125 48.542969 C 164.648438 48.3125 164.082031 48.109375 163.507812 47.9375 C 162.929688 47.761719 162.347656 47.617188 161.757812 47.5 C 161.167969 47.382812 160.574219 47.292969 159.976562 47.234375 C 159.378906 47.175781 158.777344 47.144531 158.175781 47.144531 C 157.574219 47.144531 156.976562 47.175781 156.378906 47.234375 C 155.777344 47.292969 155.183594 47.382812 154.59375 47.5 C 154.003906 47.617188 153.421875 47.761719 152.847656 47.9375 C 152.273438 48.109375 151.707031 48.3125 151.152344 48.542969 C 150.59375 48.773438 150.050781 49.03125 149.523438 49.3125 C 148.992188 49.597656 148.476562 49.90625 147.976562 50.242188 C 147.476562 50.574219 146.996094 50.933594 146.53125 51.3125 C 146.066406 51.695312 145.621094 52.097656 145.195312 52.523438 C 144.769531 52.949219 144.367188 53.394531 143.984375 53.859375 C 143.605469 54.324219 143.246094 54.808594 142.914062 55.308594 C 142.578125 55.808594 142.269531 56.324219 141.988281 56.851562 C 141.703125 57.382812 141.449219 57.925781 141.21875 58.480469 C 140.988281 59.039062 140.785156 59.601562 140.609375 60.179688 C 140.4375 60.753906 140.292969 61.335938 140.175781 61.925781 C 140.058594 62.515625 139.96875 63.109375 139.910156 63.707031 C 139.851562 64.308594 139.824219 64.90625 139.824219 65.507812 L 139.824219 213.285156 C 139.824219 213.285156 121.289062 185.425781 112.710938 176.582031 C 104.132812 167.738281 83.769531 178.089844 90.328125 194.410156 C 95.308594 206.804688 145.695312 324.351562 145.695312 324.351562 L 279.445312 324.351562 L 283.046875 198.882812 L 283.046875 186.648438 C 283.046875 176.09375 275.4375 167.457031 265.34375 167.457031 Z M 265.34375 167.457031 " fill-opacity="1" fill-rule="nonzero"/><path fill="#554ecd" d="M 265.34375 163.050781 C 263.273438 163.015625 261.257812 163.324219 259.289062 163.972656 C 257.324219 164.621094 255.519531 165.570312 253.875 166.828125 C 251.726562 156.054688 242.441406 148 231.585938 148 C 228.992188 148.011719 226.480469 148.457031 224.046875 149.34375 C 221.609375 150.230469 219.398438 151.5 217.40625 153.15625 C 215.816406 141.742188 206.316406 132.941406 194.878906 132.941406 C 192.339844 132.949219 189.875 133.382812 187.480469 134.234375 C 185.089844 135.089844 182.90625 136.3125 180.933594 137.914062 L 180.933594 65.511719 C 180.933594 64.765625 180.894531 64.023438 180.820312 63.28125 C 180.75 62.539062 180.640625 61.800781 180.496094 61.070312 C 180.347656 60.339844 180.167969 59.617188 179.953125 58.90625 C 179.734375 58.191406 179.484375 57.492188 179.199219 56.800781 C 178.914062 56.113281 178.597656 55.441406 178.246094 54.785156 C 177.894531 54.125 177.511719 53.488281 177.097656 52.867188 C 176.683594 52.25 176.238281 51.652344 175.765625 51.074219 C 175.292969 50.5 174.792969 49.949219 174.265625 49.421875 C 173.738281 48.894531 173.1875 48.394531 172.613281 47.921875 C 172.035156 47.449219 171.4375 47.003906 170.820312 46.589844 C 170.199219 46.175781 169.5625 45.792969 168.902344 45.441406 C 168.246094 45.089844 167.574219 44.773438 166.886719 44.488281 C 166.195312 44.203125 165.496094 43.953125 164.78125 43.734375 C 164.070312 43.519531 163.347656 43.339844 162.617188 43.191406 C 161.886719 43.046875 161.148438 42.9375 160.40625 42.867188 C 159.667969 42.792969 158.921875 42.757812 158.175781 42.757812 C 157.433594 42.757812 156.6875 42.792969 155.945312 42.867188 C 155.207031 42.9375 154.46875 43.046875 153.738281 43.191406 C 153.007812 43.339844 152.285156 43.519531 151.574219 43.734375 C 150.859375 43.953125 150.160156 44.203125 149.46875 44.488281 C 148.78125 44.773438 148.109375 45.089844 147.453125 45.441406 C 146.792969 45.792969 146.15625 46.175781 145.535156 46.589844 C 144.917969 47.003906 144.320312 47.449219 143.742188 47.921875 C 143.167969 48.394531 142.613281 48.894531 142.089844 49.421875 C 141.5625 49.949219 141.0625 50.5 140.589844 51.074219 C 140.117188 51.652344 139.671875 52.25 139.257812 52.867188 C 138.84375 53.488281 138.460938 54.125 138.109375 54.785156 C 137.757812 55.441406 137.441406 56.113281 137.15625 56.800781 C 136.871094 57.492188 136.621094 58.191406 136.402344 58.90625 C 136.1875 59.617188 136.007812 60.339844 135.859375 61.070312 C 135.714844 61.800781 135.605469 62.539062 135.53125 63.28125 C 135.460938 64.023438 135.421875 64.765625 135.421875 65.511719 L 135.421875 199.035156 C 128.796875 189.550781 120.855469 178.664062 115.871094 173.519531 C 110.464844 167.921875 101.070312 167.414062 93.542969 172.300781 C 85.429688 177.570312 82.566406 186.886719 86.238281 196.050781 C 91.246094 208.511719 141.195312 325.027344 141.652344 326.089844 L 142.792969 328.757812 L 283.726562 328.757812 L 287.449219 198.878906 L 287.449219 186.644531 C 287.449219 173.410156 277.738281 163.050781 265.34375 163.050781 Z M 148.601562 319.949219 L 148.253906 319.140625 C 116.390625 244.746094 97.265625 199.871094 94.414062 192.773438 C 91.390625 185.242188 96.152344 181.113281 98.335938 179.683594 C 101.777344 177.453125 106.714844 176.734375 109.550781 179.644531 C 117.757812 188.105469 135.972656 215.453125 136.15625 215.726562 L 144.226562 227.84375 L 144.226562 65.511719 C 144.226562 64.59375 144.316406 63.6875 144.496094 62.789062 C 144.671875 61.890625 144.9375 61.019531 145.289062 60.171875 C 145.640625 59.324219 146.070312 58.519531 146.578125 57.757812 C 147.085938 56.996094 147.664062 56.292969 148.3125 55.644531 C 148.960938 54.996094 149.664062 54.417969 150.425781 53.910156 C 151.1875 53.402344 151.992188 52.972656 152.839844 52.621094 C 153.683594 52.269531 154.558594 52.007812 155.457031 51.828125 C 156.355469 51.648438 157.261719 51.558594 158.175781 51.558594 C 159.09375 51.558594 160 51.648438 160.898438 51.828125 C 161.796875 52.007812 162.671875 52.269531 163.515625 52.621094 C 164.363281 52.972656 165.167969 53.402344 165.929688 53.910156 C 166.691406 54.417969 167.394531 54.996094 168.042969 55.644531 C 168.691406 56.292969 169.269531 56.996094 169.777344 57.757812 C 170.285156 58.519531 170.714844 59.324219 171.066406 60.171875 C 171.417969 61.019531 171.679688 61.890625 171.859375 62.789062 C 172.039062 63.6875 172.128906 64.59375 172.128906 65.511719 L 172.128906 195.476562 L 180.933594 195.476562 L 180.933594 156.484375 C 180.960938 148.355469 187.214844 141.742188 194.878906 141.742188 C 202.574219 141.742188 208.828125 148.375 208.828125 156.527344 L 208.820312 206.28125 L 217.625 206.28125 L 217.636719 171.585938 C 217.636719 163.433594 223.890625 156.800781 231.585938 156.800781 C 239.277344 156.800781 245.539062 163.433594 245.539062 171.585938 L 245.539062 217.082031 L 254.34375 217.082031 L 254.34375 186.644531 C 254.34375 179.820312 257.226562 171.859375 265.34375 171.859375 C 272.804688 171.859375 278.644531 178.355469 278.644531 186.644531 L 278.644531 198.773438 L 275.164062 319.949219 Z M 148.601562 319.949219 " fill-opacity="1" fill-rule="nonzero"/></svg>