<svg xmlns="http://www.w3.org/2000/svg" xmlns:xlink="http://www.w3.org/1999/xlink" width="1920" zoomAndPan="magnify" viewBox="0 0 1440 540.000001" height="720" preserveAspectRatio="xMidYMid meet" version="1.0"><defs><g/><clipPath id="16a9bcf555"><path d="M 1222.753906 100.96875 L 1391.191406 100.96875 L 1391.191406 324.78125 L 1222.753906 324.78125 Z M 1222.753906 100.96875 " clip-rule="nonzero"/></clipPath><clipPath id="e1fc61208d"><rect x="0" width="1175" y="0" height="319"/></clipPath><clipPath id="9b9a088e42"><path d="M 1318.855469 303.597656 L 1362.683594 303.597656 L 1362.683594 346.269531 L 1318.855469 346.269531 Z M 1318.855469 303.597656 " clip-rule="nonzero"/></clipPath></defs><g clip-path="url(#16a9bcf555)"><path fill="#fbc943" d="M 1306.976562 100.96875 C 1318.320312 100.96875 1307.828125 168.363281 1327.371094 194.328125 C 1341.402344 212.96875 1391.195312 206.109375 1391.195312 212.882812 C 1391.195312 219.648438 1337.824219 211.617188 1323.792969 230.265625 C 1304.25 256.226562 1315.722656 324.789062 1306.976562 324.789062 C 1298.230469 324.789062 1309.464844 255.011719 1289.921875 229.046875 C 1275.890625 210.40625 1222.757812 219.671875 1222.757812 212.882812 C 1222.757812 206.082031 1274.839844 212.96875 1288.871094 194.328125 C 1308.414062 168.363281 1295.628906 100.96875 1306.976562 100.96875 Z M 1306.976562 100.96875 " fill-opacity="1" fill-rule="evenodd"/></g><g transform="matrix(1, 0, 0, 1, 133, 110)"><g clip-path="url(#e1fc61208d)"><g fill="#ffffff" fill-opacity="1"><g transform="translate(0.12354, 234.550052)"><g><path d="M 71.671875 3.0625 C 58.859375 3.0625 47.820312 0.953125 38.5625 -3.265625 C 29.3125 -7.492188 22.171875 -13.503906 17.140625 -21.296875 C 12.117188 -29.097656 9.609375 -38.242188 9.609375 -48.734375 L 43.703125 -48.734375 C 43.703125 -41.453125 46.210938 -35.769531 51.234375 -31.6875 C 56.265625 -27.601562 63.003906 -25.5625 71.453125 -25.5625 C 78.742188 -25.5625 84.5 -26.984375 88.71875 -29.828125 C 92.945312 -32.671875 95.0625 -36.640625 95.0625 -41.734375 C 95.0625 -47.128906 92.507812 -51.5 87.40625 -54.84375 C 82.3125 -58.195312 74.375 -61.039062 63.59375 -63.375 C 45.675781 -67.164062 32.414062 -72.921875 23.8125 -80.640625 C 15.21875 -88.359375 10.921875 -98.410156 10.921875 -110.796875 C 10.921875 -124.785156 16.019531 -135.820312 26.21875 -143.90625 C 36.414062 -151.988281 50.332031 -156.03125 67.96875 -156.03125 C 80.050781 -156.03125 90.535156 -153.953125 99.421875 -149.796875 C 108.316406 -145.648438 115.203125 -139.820312 120.078125 -132.3125 C 124.960938 -124.8125 127.40625 -115.890625 127.40625 -105.546875 L 93.96875 -105.546875 C 93.96875 -112.398438 91.707031 -117.789062 87.1875 -121.71875 C 82.675781 -125.65625 76.414062 -127.625 68.40625 -127.625 C 61.113281 -127.625 55.351562 -126.203125 51.125 -123.359375 C 46.90625 -120.515625 44.796875 -116.546875 44.796875 -111.453125 C 44.796875 -106.785156 47.125 -102.847656 51.78125 -99.640625 C 56.445312 -96.441406 64.609375 -93.457031 76.265625 -90.6875 C 95.347656 -86.175781 109.113281 -80.128906 117.5625 -72.546875 C 126.019531 -64.972656 130.25 -55.140625 130.25 -43.046875 C 130.25 -28.628906 125.039062 -17.335938 114.625 -9.171875 C 104.207031 -1.015625 89.890625 3.0625 71.671875 3.0625 Z M 71.671875 3.0625 "/></g></g></g><g fill="#ffffff" fill-opacity="1"><g transform="translate(138.892595, 234.550052)"><g><path d="M 54.84375 2.1875 C 41.300781 2.1875 30.59375 -0.976562 22.71875 -7.3125 C 14.851562 -13.65625 10.921875 -22.363281 10.921875 -33.4375 C 10.921875 -44.070312 14.453125 -52.554688 21.515625 -58.890625 C 28.585938 -65.234375 38.097656 -68.40625 50.046875 -68.40625 L 91.5625 -68.40625 L 91.5625 -73.640625 C 91.5625 -79.328125 89.519531 -83.878906 85.4375 -87.296875 C 81.363281 -90.722656 76.050781 -92.4375 69.5 -92.4375 C 64.101562 -92.4375 59.507812 -91.195312 55.71875 -88.71875 C 51.9375 -86.25 49.535156 -82.972656 48.515625 -78.890625 L 16.609375 -78.890625 C 18.648438 -91.421875 24.296875 -101.035156 33.546875 -107.734375 C 42.796875 -114.429688 54.707031 -117.78125 69.28125 -117.78125 C 86.46875 -117.78125 99.90625 -113.445312 109.59375 -104.78125 C 119.28125 -96.113281 124.125 -84.207031 124.125 -69.0625 L 124.125 0 L 99.4375 0 L 95.71875 -13.328125 C 85.664062 -2.984375 72.039062 2.1875 54.84375 2.1875 Z M 43.703125 -34.75 C 43.703125 -30.8125 45.414062 -27.640625 48.84375 -25.234375 C 52.269531 -22.835938 56.820312 -21.640625 62.5 -21.640625 C 70.800781 -21.640625 77.679688 -24.039062 83.140625 -28.84375 C 88.609375 -33.65625 91.488281 -39.921875 91.78125 -47.640625 L 60.3125 -47.640625 C 55.363281 -47.640625 51.359375 -46.472656 48.296875 -44.140625 C 45.234375 -41.804688 43.703125 -38.675781 43.703125 -34.75 Z M 43.703125 -34.75 "/></g></g></g><g fill="#ffffff" fill-opacity="1"><g transform="translate(274.1651, 234.550052)"><g><path d="M 71.890625 0 C 57.328125 0 46.144531 -3.75 38.34375 -11.25 C 30.550781 -18.757812 26.65625 -29.503906 26.65625 -43.484375 L 26.65625 -87.625 L 4.375 -87.625 L 4.375 -114.734375 L 14.640625 -114.734375 C 20.898438 -114.734375 25.160156 -115.75 27.421875 -117.78125 C 29.679688 -119.820312 31.25 -123.757812 32.125 -129.59375 L 34.09375 -144.453125 L 59.875 -144.453125 L 59.875 -114.734375 L 91.34375 -114.734375 L 91.34375 -87.625 L 59.875 -87.625 L 59.875 -48.515625 C 59.875 -35.398438 66.285156 -28.84375 79.109375 -28.84375 L 92.875 -28.84375 L 92.875 0 Z M 71.890625 0 "/></g></g></g><g fill="#ffffff" fill-opacity="1"><g transform="translate(374.9093, 234.550052)"><g><path d="M 62.28125 3.0625 C 47.414062 3.0625 35.722656 -1.632812 27.203125 -11.03125 C 18.679688 -20.425781 14.421875 -33.066406 14.421875 -48.953125 L 14.421875 -114.734375 L 47.640625 -114.734375 L 47.640625 -52.234375 C 47.640625 -43.773438 49.640625 -37.210938 53.640625 -32.546875 C 57.648438 -27.890625 63.15625 -25.5625 70.15625 -25.5625 C 77.726562 -25.5625 83.769531 -28.179688 88.28125 -33.421875 C 92.800781 -38.671875 95.0625 -45.8125 95.0625 -54.84375 L 95.0625 -114.734375 L 128.28125 -114.734375 L 128.28125 0 L 103.578125 0 L 100.09375 -12.890625 C 95.570312 -7.503906 90.03125 -3.5 83.46875 -0.875 C 76.914062 1.75 69.851562 3.0625 62.28125 3.0625 Z M 62.28125 3.0625 "/></g></g></g><g fill="#ffffff" fill-opacity="1"><g transform="translate(519.797302, 234.550052)"><g><path d="M 71.671875 3.0625 C 58.859375 3.0625 47.820312 0.953125 38.5625 -3.265625 C 29.3125 -7.492188 22.171875 -13.503906 17.140625 -21.296875 C 12.117188 -29.097656 9.609375 -38.242188 9.609375 -48.734375 L 43.703125 -48.734375 C 43.703125 -41.453125 46.210938 -35.769531 51.234375 -31.6875 C 56.265625 -27.601562 63.003906 -25.5625 71.453125 -25.5625 C 78.742188 -25.5625 84.5 -26.984375 88.71875 -29.828125 C 92.945312 -32.671875 95.0625 -36.640625 95.0625 -41.734375 C 95.0625 -47.128906 92.507812 -51.5 87.40625 -54.84375 C 82.3125 -58.195312 74.375 -61.039062 63.59375 -63.375 C 45.675781 -67.164062 32.414062 -72.921875 23.8125 -80.640625 C 15.21875 -88.359375 10.921875 -98.410156 10.921875 -110.796875 C 10.921875 -124.785156 16.019531 -135.820312 26.21875 -143.90625 C 36.414062 -151.988281 50.332031 -156.03125 67.96875 -156.03125 C 80.050781 -156.03125 90.535156 -153.953125 99.421875 -149.796875 C 108.316406 -145.648438 115.203125 -139.820312 120.078125 -132.3125 C 124.960938 -124.8125 127.40625 -115.890625 127.40625 -105.546875 L 93.96875 -105.546875 C 93.96875 -112.398438 91.707031 -117.789062 87.1875 -121.71875 C 82.675781 -125.65625 76.414062 -127.625 68.40625 -127.625 C 61.113281 -127.625 55.351562 -126.203125 51.125 -123.359375 C 46.90625 -120.515625 44.796875 -116.546875 44.796875 -111.453125 C 44.796875 -106.785156 47.125 -102.847656 51.78125 -99.640625 C 56.445312 -96.441406 64.609375 -93.457031 76.265625 -90.6875 C 95.347656 -86.175781 109.113281 -80.128906 117.5625 -72.546875 C 126.019531 -64.972656 130.25 -55.140625 130.25 -43.046875 C 130.25 -28.628906 125.039062 -17.335938 114.625 -9.171875 C 104.207031 -1.015625 89.890625 3.0625 71.671875 3.0625 Z M 71.671875 3.0625 "/></g></g></g><g fill="#ffffff" fill-opacity="1"><g transform="translate(659.877584, 234.550052)"><g><path d="M 62.28125 3.0625 C 47.414062 3.0625 35.722656 -1.632812 27.203125 -11.03125 C 18.679688 -20.425781 14.421875 -33.066406 14.421875 -48.953125 L 14.421875 -114.734375 L 47.640625 -114.734375 L 47.640625 -52.234375 C 47.640625 -43.773438 49.640625 -37.210938 53.640625 -32.546875 C 57.648438 -27.890625 63.15625 -25.5625 70.15625 -25.5625 C 77.726562 -25.5625 83.769531 -28.179688 88.28125 -33.421875 C 92.800781 -38.671875 95.0625 -45.8125 95.0625 -54.84375 L 95.0625 -114.734375 L 128.28125 -114.734375 L 128.28125 0 L 103.578125 0 L 100.09375 -12.890625 C 95.570312 -7.503906 90.03125 -3.5 83.46875 -0.875 C 76.914062 1.75 69.851562 3.0625 62.28125 3.0625 Z M 62.28125 3.0625 "/></g></g></g><g fill="#ffffff" fill-opacity="1"><g transform="translate(804.765629, 234.550052)"><g><path d="M 54.84375 2.1875 C 41.300781 2.1875 30.59375 -0.976562 22.71875 -7.3125 C 14.851562 -13.65625 10.921875 -22.363281 10.921875 -33.4375 C 10.921875 -44.070312 14.453125 -52.554688 21.515625 -58.890625 C 28.585938 -65.234375 38.097656 -68.40625 50.046875 -68.40625 L 91.5625 -68.40625 L 91.5625 -73.640625 C 91.5625 -79.328125 89.519531 -83.878906 85.4375 -87.296875 C 81.363281 -90.722656 76.050781 -92.4375 69.5 -92.4375 C 64.101562 -92.4375 59.507812 -91.195312 55.71875 -88.71875 C 51.9375 -86.25 49.535156 -82.972656 48.515625 -78.890625 L 16.609375 -78.890625 C 18.648438 -91.421875 24.296875 -101.035156 33.546875 -107.734375 C 42.796875 -114.429688 54.707031 -117.78125 69.28125 -117.78125 C 86.46875 -117.78125 99.90625 -113.445312 109.59375 -104.78125 C 119.28125 -96.113281 124.125 -84.207031 124.125 -69.0625 L 124.125 0 L 99.4375 0 L 95.71875 -13.328125 C 85.664062 -2.984375 72.039062 2.1875 54.84375 2.1875 Z M 43.703125 -34.75 C 43.703125 -30.8125 45.414062 -27.640625 48.84375 -25.234375 C 52.269531 -22.835938 56.820312 -21.640625 62.5 -21.640625 C 70.800781 -21.640625 77.679688 -24.039062 83.140625 -28.84375 C 88.609375 -33.65625 91.488281 -39.921875 91.78125 -47.640625 L 60.3125 -47.640625 C 55.363281 -47.640625 51.359375 -46.472656 48.296875 -44.140625 C 45.234375 -41.804688 43.703125 -38.675781 43.703125 -34.75 Z M 43.703125 -34.75 "/></g></g></g><g fill="#ffffff" fill-opacity="1"><g transform="translate(943.316149, 234.550052)"><g><path d="M 16.609375 0 L 16.609375 -114.734375 L 41.296875 -114.734375 L 45.671875 -99.4375 C 49.460938 -104.820312 54.125 -108.71875 59.65625 -111.125 C 65.195312 -113.53125 72.191406 -114.734375 80.640625 -114.734375 L 93.09375 -114.734375 L 93.09375 -84.578125 L 80.421875 -84.578125 C 70.953125 -84.578125 63.484375 -82.023438 58.015625 -76.921875 C 52.554688 -71.828125 49.828125 -63.085938 49.828125 -50.703125 L 49.828125 0 Z M 16.609375 0 "/></g></g></g><g fill="#ffffff" fill-opacity="1"><g transform="translate(1035.318927, 234.550052)"><g><path d="M 54.84375 2.1875 C 41.300781 2.1875 30.59375 -0.976562 22.71875 -7.3125 C 14.851562 -13.65625 10.921875 -22.363281 10.921875 -33.4375 C 10.921875 -44.070312 14.453125 -52.554688 21.515625 -58.890625 C 28.585938 -65.234375 38.097656 -68.40625 50.046875 -68.40625 L 91.5625 -68.40625 L 91.5625 -73.640625 C 91.5625 -79.328125 89.519531 -83.878906 85.4375 -87.296875 C 81.363281 -90.722656 76.050781 -92.4375 69.5 -92.4375 C 64.101562 -92.4375 59.507812 -91.195312 55.71875 -88.71875 C 51.9375 -86.25 49.535156 -82.972656 48.515625 -78.890625 L 16.609375 -78.890625 C 18.648438 -91.421875 24.296875 -101.035156 33.546875 -107.734375 C 42.796875 -114.429688 54.707031 -117.78125 69.28125 -117.78125 C 86.46875 -117.78125 99.90625 -113.445312 109.59375 -104.78125 C 119.28125 -96.113281 124.125 -84.207031 124.125 -69.0625 L 124.125 0 L 99.4375 0 L 95.71875 -13.328125 C 85.664062 -2.984375 72.039062 2.1875 54.84375 2.1875 Z M 43.703125 -34.75 C 43.703125 -30.8125 45.414062 -27.640625 48.84375 -25.234375 C 52.269531 -22.835938 56.820312 -21.640625 62.5 -21.640625 C 70.800781 -21.640625 77.679688 -24.039062 83.140625 -28.84375 C 88.609375 -33.65625 91.488281 -39.921875 91.78125 -47.640625 L 60.3125 -47.640625 C 55.363281 -47.640625 51.359375 -46.472656 48.296875 -44.140625 C 45.234375 -41.804688 43.703125 -38.675781 43.703125 -34.75 Z M 43.703125 -34.75 "/></g></g></g></g></g><g clip-path="url(#9b9a088e42)"><path fill="#ffffff" d="M 1337.582031 324.015625 L 1339.925781 324.015625 C 1342.65625 324.015625 1344.867188 323.105469 1344.867188 320.894531 C 1344.867188 318.945312 1343.433594 317.644531 1340.3125 317.644531 C 1339.015625 317.644531 1338.101562 317.773438 1337.582031 317.902344 Z M 1337.453125 335.980469 L 1332.511719 335.980469 L 1332.511719 314.652344 C 1334.460938 314.390625 1337.191406 314 1340.703125 314 C 1344.734375 314 1346.554688 314.652344 1347.988281 315.691406 C 1349.289062 316.601562 1350.199219 318.164062 1350.199219 320.246094 C 1350.199219 322.847656 1348.246094 324.535156 1345.777344 325.316406 L 1345.777344 325.578125 C 1347.855469 326.226562 1348.898438 327.917969 1349.546875 330.777344 C 1350.199219 334.03125 1350.71875 335.199219 1351.109375 335.980469 L 1345.90625 335.980469 C 1345.257812 335.199219 1344.867188 333.378906 1344.214844 330.777344 C 1343.824219 328.566406 1342.523438 327.527344 1339.792969 327.527344 L 1337.453125 327.527344 Z M 1324.316406 324.925781 C 1324.316406 334.421875 1331.46875 341.964844 1340.964844 341.964844 C 1350.199219 342.09375 1357.222656 334.421875 1357.222656 325.058594 C 1357.222656 315.5625 1350.199219 307.890625 1340.703125 307.890625 C 1331.46875 307.890625 1324.316406 315.5625 1324.316406 324.925781 Z M 1362.683594 324.925781 C 1362.683594 336.890625 1353.058594 346.386719 1340.835938 346.386719 C 1328.609375 346.386719 1318.855469 336.890625 1318.855469 324.925781 C 1318.855469 312.960938 1328.609375 303.597656 1340.964844 303.597656 C 1353.058594 303.597656 1362.683594 312.960938 1362.683594 324.925781 " fill-opacity="1" fill-rule="nonzero"/></g></svg>